<?xml version="1.0" encoding="UTF-8" standalone="no"?>
<!-- Created with Inkscape (http://www.inkscape.org/) -->

<svg
   width="100"
   height="100"
   viewBox="0 0 26.458334 26.458333"
   version="1.1"
   id="svg5"
   inkscape:version="1.2.2 (b0a8486541, 2022-12-01)"
   sodipodi:docname="gateway.svg"
   xmlns:inkscape="http://www.inkscape.org/namespaces/inkscape"
   xmlns:sodipodi="http://sodipodi.sourceforge.net/DTD/sodipodi-0.dtd"
   xmlns="http://www.w3.org/2000/svg"
   xmlns:svg="http://www.w3.org/2000/svg">
  <sodipodi:namedview
     id="namedview7"
     pagecolor="#505050"
     bordercolor="#ffffff"
     borderopacity="1"
     inkscape:showpageshadow="0"
     inkscape:pageopacity="0"
     inkscape:pagecheckerboard="1"
     inkscape:deskcolor="#505050"
     inkscape:document-units="px"
     showgrid="false"
     inkscape:zoom="10.35098"
     inkscape:cx="46.952077"
     inkscape:cy="47.1936"
     inkscape:window-width="1920"
     inkscape:window-height="2088"
     inkscape:window-x="3840"
     inkscape:window-y="0"
     inkscape:window-maximized="0"
     inkscape:current-layer="layer2" />
  <defs
     id="defs2" />
  <g
     inkscape:label="Doorway"
     inkscape:groupmode="layer"
     id="layer1"
     style="display:inline">
    <path
       style="fill:#000000;stroke-width:3.81"
       d="m 2.0704561,26.302461 2.709486,-0.07668 c 0,0 0.3578566,-11.732585 0.3067341,-15.617885 C 5.0355539,6.7225923 8.9208543,2.7861694 13.803041,2.7606082 18.685228,2.7350468 21.803693,5.8023894 21.727009,8.6908036 21.650325,11.579218 21.880376,26.2769 21.880376,26.2769 l 2.837292,-0.05112 c 0,0 0.102244,-12.985083 0.102244,-17.2282403 0,-4.243157 -5.649022,-8.86973176 -10.940187,-8.84417058 C 8.5885588,0.17892831 2.7094857,3.0929037 2.3516292,8.8697317 1.9937726,14.64656 2.0704561,26.302461 2.0704561,26.302461 Z"
       id="path186" />
    <rect
       style="fill:#000000;stroke-width:3.81"
       id="rect794"
       width="2.5049963"
       height="2.709486"
       x="0.53678489"
       y="23.337362" />
    <rect
       style="fill:#000000;stroke-width:3.81"
       id="rect796"
       width="2.6583633"
       height="4.2431569"
       x="0.43454018"
       y="17.483852" />
    <rect
       style="fill:#000000;stroke-width:3.81"
       id="rect798"
       width="2.4027514"
       height="4.4987688"
       x="0.61346853"
       y="10.889066" />
    <rect
       style="fill:#000000;stroke-width:3.81"
       id="rect800"
       width="2.8372917"
       height="3.0162201"
       x="0.817958"
       y="6.2113681" />
    <rect
       style="fill:#000000;stroke-width:3.81"
       id="rect794-3"
       width="2.5049963"
       height="2.709486"
       x="23.209558"
       y="23.644096" />
    <rect
       style="fill:#000000;stroke-width:3.81"
       id="rect796-6"
       width="2.6583633"
       height="4.2431569"
       x="23.107313"
       y="17.790588" />
    <rect
       style="fill:#000000;stroke-width:3.81"
       id="rect798-7"
       width="2.4027514"
       height="4.4987688"
       x="23.286242"
       y="11.195801" />
    <rect
       style="fill:#000000;stroke-width:3.81"
       id="rect800-5"
       width="2.8372917"
       height="3.0162201"
       x="23.49073"
       y="6.5181036" />
    <rect
       style="fill:#000000;stroke-width:3.81"
       id="rect802"
       width="3.5018826"
       height="3.4507604"
       x="3.5274439"
       y="1.917089" />
    <rect
       style="fill:#000000;stroke-width:3.81"
       id="rect804"
       width="2.709486"
       height="1.2780594"
       x="7.9239683"
       y="0.58790725" />
    <rect
       style="fill:#000000;stroke-width:3.81"
       id="rect806"
       width="2.8117306"
       height="1.2013757"
       x="15.975741"
       y="0.48566255" />
    <rect
       style="fill:#000000;stroke-width:3.81"
       id="rect808"
       width="2.8372917"
       height="1.8404055"
       x="19.579868"
       y="2.3260679" />
  </g>
  <g
     inkscape:groupmode="layer"
     id="layer2"
     inkscape:label="Door"
     style="display:inline">
    <path
       id="path1021"
       style="fill:#000000;stroke-width:3.81"
       d="M 6.8879517,8.3359253 C 6.3747004,8.3406173 5.8912095,8.9015946 5.8792277,10.147701 5.8536664,12.806062 5.5981079,26.149308 5.5981079,26.149308 l 2.1724773,-0.02584 c 0,0 0.082833,-3.139267 0.1658813,-6.643005 A 3.0417812,3.0417812 0 0 1 6.3649862,16.819129 3.0417812,3.0417812 0 0 1 8.0542888,14.096297 c 0.033869,-1.75231 0.055416,-3.198485 0.048576,-3.820955 C 8.0892852,9.039619 7.4696366,8.3306078 6.8879517,8.3359253 Z" />
    <path
       style="fill:#000000;stroke-width:3.81"
       d="m 18.659667,26.2769 2.1727,-0.02556 c 0,0 0.357857,-13.521868 0.332296,-15.847936 C 21.139102,8.0773351 18.966401,7.6172337 18.94084,10.275597 18.915278,12.933961 18.659667,26.2769 18.659667,26.2769 Z"
       id="path1023" />
    <path
       style="fill:#000000;stroke-width:4.17271"
       d="m 16.052426,26.251339 2.1727,-0.03066 c 0,0 0.357857,-16.218954 0.332296,-19.0089815 C 18.531862,4.4216703 16.35916,3.8697967 16.333599,7.0584 c -0.02556,3.188604 -0.281173,19.192939 -0.281173,19.192939 z"
       id="path1025" />
    <path
       id="path1027"
       style="fill:#000000;stroke-width:4.17271"
       d="m 9.4955445,4.7831706 c -0.5132514,0.00563 -0.997259,0.6783377 -1.0092407,2.172994 -0.00902,1.1252605 -0.049075,3.9472854 -0.094051,6.9980224 a 3.0417812,3.0417812 0 0 1 1.0144083,-0.176733 3.0417812,3.0417812 0 0 1 1.2154299,0.253731 c 0.0561,-3.124336 0.09711,-5.9112299 0.08785,-6.9215414 C 10.696362,5.6274431 10.077229,4.7767921 9.4955445,4.7831706 Z M 10.512537,19.652547 A 3.0417812,3.0417812 0 0 1 9.406661,19.860803 3.0417812,3.0417812 0 0 1 8.3064698,19.655131 C 8.2581404,22.772819 8.205184,26.149308 8.205184,26.149308 l 2.172477,-0.03101 c 0,0 0.06453,-2.994643 0.134876,-6.465756 z" />
    <path
       id="path1029"
       style="fill:#000000;stroke-width:4.3078"
       d="m 12.051461,3.5052124 c -0.513252,0.006 -0.997259,0.7226176 -1.009241,2.315621 -0.0099,1.3118714 -0.05596,4.7537636 -0.106453,8.3695146 a 3.0417812,3.0417812 0 0 1 1.512569,2.628781 3.0417812,3.0417812 0 0 1 -1.5875,2.670121 c -0.047,3.228775 -0.09974,6.787699 -0.09974,6.787699 l 2.172994,-0.03256 c 0,0 0.357841,-17.2861398 0.33228,-20.2597453 C 13.25279,4.4049174 12.633142,3.4984099 12.051457,3.5052084 Z" />
    <path
       style="fill:#000000;stroke-width:4.3078"
       d="m 13.419623,26.149094 2.1727,-0.03268 c 0,0 0.357857,-17.2861464 0.332296,-20.2597549 C 15.899059,2.8830537 13.726357,2.2948673 13.700796,5.6932778 13.675236,9.0916887 13.419623,26.149094 13.419623,26.149094 Z"
       id="path1031" />
    <circle
       style="fill:#000000;stroke-width:3.16966"
       id="path1866"
       cx="9.406517"
       cy="16.819262"
       r="2.5305574" />
  </g>
</svg>
