<?xml version="1.0" encoding="UTF-8" standalone="no"?>
<!-- Created with Inkscape (http://www.inkscape.org/) -->

<svg
   width="100"
   height="100"
   viewBox="0 0 26.458334 26.458333"
   version="1.1"
   id="svg5"
   inkscape:version="1.2.2 (b0a8486541, 2022-12-01)"
   sodipodi:docname="Icon.svg"
   xmlns:inkscape="http://www.inkscape.org/namespaces/inkscape"
   xmlns:sodipodi="http://sodipodi.sourceforge.net/DTD/sodipodi-0.dtd"
   xmlns="http://www.w3.org/2000/svg"
   xmlns:svg="http://www.w3.org/2000/svg">
  <sodipodi:namedview
     id="namedview7"
     pagecolor="#505050"
     bordercolor="#ffffff"
     borderopacity="1"
     inkscape:showpageshadow="0"
     inkscape:pageopacity="0"
     inkscape:pagecheckerboard="1"
     inkscape:deskcolor="#505050"
     inkscape:document-units="px"
     showgrid="false"
     inkscape:zoom="5.1754899"
     inkscape:cx="45.985985"
     inkscape:cy="2.0287934"
     inkscape:window-width="1920"
     inkscape:window-height="2088"
     inkscape:window-x="3840"
     inkscape:window-y="0"
     inkscape:window-maximized="0"
     inkscape:current-layer="layer3" />
  <defs
     id="defs2" />
  <g
     inkscape:groupmode="layer"
     id="layer3"
     inkscape:label="Mouse">
    <path
       style="fill:#f8ccfe;fill-opacity:1;stroke:#000000;stroke-width:1.38524;stroke-linecap:round;stroke-miterlimit:10;stroke-dasharray:none;stroke-opacity:1"
       d="M 0.69262144,1.010306 V 19.279017 C 1.6932447,16.780374 4.1199109,12.902195 6.0415499,11.045166 c 2.7030504,2.062077 9.8895051,2.650074 11.7328651,3.607614 1.843359,0.95754 4.263487,2.797201 4.030335,4.555791 -0.233152,1.758589 -4.1653,3.02887 -6.249824,2.986419 -2.084523,-0.04245 -3.28114,-0.458935 -3.054901,-4.354251 C 12.726264,13.945424 24.317051,11.441407 24.349965,6.2881873 24.38288,1.1349677 20.339784,-0.60341244 18.99717,1.8483713 17.654556,4.300155 21.485786,3.8091834 21.457893,6.2043094 21.429999,8.5994355 8.9598986,12.086618 8.8239607,17.877561 8.6880229,23.668503 11.450194,25.64269 15.368922,25.688945 19.28765,25.735205 25.445283,23.461849 25.716806,19.347796 25.98833,15.233744 21.393827,12.132688 20.18137,11.458363 18.968914,10.784038 11.946311,9.8232612 9.7211627,7.9928083 10.528888,7.1805908 13.508556,5.910926 14.580514,5.5007067 Z"
       id="path3187"
       sodipodi:nodetypes="ccczzzzzzzzzzzccc" />
    <path
       style="fill:#f8ccfe;fill-opacity:1;stroke:#000000;stroke-width:1.38524;stroke-linecap:round;stroke-miterlimit:10;stroke-dasharray:none;stroke-opacity:1"
       d="M 25.716806,19.347796 C 25.98833,15.233744 21.393827,12.132688 20.18137,11.458363 18.968914,10.784038 11.946311,9.8232612 9.7211627,7.9928083 10.528888,7.1805908 13.508556,5.910926 14.580514,5.5007067 L 0.69262144,1.010306 V 19.279017 C 1.6932447,16.780374 4.1199109,12.902195 6.0415499,11.045166 c 2.7030504,2.062077 9.8895051,2.650074 11.7328651,3.607614 1.843359,0.95754 4.263487,2.797201 4.030335,4.555791"
       id="path3271"
       sodipodi:nodetypes="czccccczc" />
  </g>
</svg>
